<?xml version="1.0" encoding="UTF-8" standalone="no"?>
<svg width="504px" height="133px" viewBox="0 0 504 133" version="1.1" xmlns="http://www.w3.org/2000/svg" xmlns:xlink="http://www.w3.org/1999/xlink" xmlns:sketch="http://www.bohemiancoding.com/sketch/ns">
    <title>Untitled 2</title>
    <description>Created with Sketch (http://www.bohemiancoding.com/sketch)</description>
    <defs></defs>
    <g id="Page-1" stroke="none" stroke-width="1" fill="none" fill-rule="evenodd" sketch:type="MSPage">
        <g id="OwnLocal-Logo" sketch:type="MSLayerGroup" fill="#4A475A">
            <path d="M22.437,71.445 C14.674,71.445 8.185,77.328 8.185,86.607 C8.185,95.886 14.613,101.769 22.437,101.769 C30.26,101.769 36.689,95.886 36.689,86.607 C36.689,77.328 30.26,71.445 22.437,71.445 L22.437,71.445 Z M22.437,109.653 C9.943,109.653 -0.003,100.253 -0.003,86.607 C-0.003,72.961 9.883,63.561 22.437,63.561 C34.93,63.561 44.876,72.961 44.876,86.607 C44.876,100.253 34.93,109.653 22.437,109.653 L22.437,109.653 Z" id="Fill-1" sketch:type="MSShapeGroup"></path>
            <path d="M93.391,108.44 L86.113,108.44 L78.896,79.329 L78.774,79.329 L71.557,108.44 L64.28,108.44 L50.937,64.774 L59.731,64.774 L67.858,93.885 L67.979,93.885 L75.196,64.774 L82.474,64.774 L89.691,93.885 L89.812,93.885 L97.939,64.774 L106.733,64.774 L93.391,108.44" id="Fill-2" sketch:type="MSShapeGroup"></path>
            <path d="M145.542,108.44 L125.953,79.329 L125.832,79.329 L125.832,108.44 L117.644,108.44 L117.644,64.774 L125.528,64.774 L145.117,93.885 L145.239,93.885 L145.239,64.774 L153.426,64.774 L153.426,108.44 L145.542,108.44" id="Fill-3" sketch:type="MSShapeGroup"></path>
            <path d="M190.705,108.44 L169.191,108.44 L169.191,64.774 L173.74,64.774 L173.74,104.195 L191.372,104.195 L190.705,108.44" id="Fill-4" sketch:type="MSShapeGroup"></path>
            <path d="M218.184,67.806 C208.48,67.806 201.505,76.297 201.505,86.607 C201.505,96.917 208.48,105.408 218.184,105.408 C227.887,105.408 234.861,96.917 234.861,86.607 C234.861,76.297 227.887,67.806 218.184,67.806 L218.184,67.806 Z M218.184,109.653 C205.447,109.653 196.957,99.95 196.957,86.607 C196.957,73.264 205.447,63.561 218.184,63.561 C230.919,63.561 239.41,73.264 239.41,86.607 C239.41,99.95 230.919,109.653 218.184,109.653 L218.184,109.653 Z" id="Fill-5" sketch:type="MSShapeGroup"></path>
            <path d="M270.821,109.653 C257.721,109.653 248.988,100.253 248.988,86.607 C248.988,72.961 257.782,63.561 270.821,63.561 C276.825,63.561 281.737,66.411 285.012,70.232 L281.737,73.143 C280.1,70.778 275.733,67.806 270.821,67.806 C260.208,67.806 253.536,75.933 253.536,86.607 C253.536,97.281 261.481,105.408 270.821,105.408 C276.097,105.408 279.312,103.043 282.587,99.707 L285.558,102.982 C281.191,107.349 276.279,109.653 270.821,109.653" id="Fill-6" sketch:type="MSShapeGroup"></path>
            <path d="M311.33,70.232 L304.78,90.852 L317.88,90.852 L311.33,70.232 L311.33,70.232 Z M323.459,108.44 L319.214,95.098 L303.446,95.098 L299.2,108.44 L294.349,108.44 L309.207,64.774 L313.452,64.774 L328.311,108.44 L323.459,108.44 L323.459,108.44 Z" id="Fill-7" sketch:type="MSShapeGroup"></path>
            <path d="M361.95,108.44 L340.437,108.44 L340.437,64.774 L344.985,64.774 L344.985,104.195 L362.617,104.195 L361.95,108.44" id="Fill-8" sketch:type="MSShapeGroup"></path>
            <path d="M464.836,119.725 C461.017,121.435 450.503,125.616 446.631,121.744 C443.765,118.878 443.313,101.589 443.313,101.589 C443.313,101.589 443.105,98.095 444.243,96.088 C446.159,92.708 456.893,89.371 456.893,89.371 L456.893,85.673 L443.132,90.824 L443.19,83.514 C443.19,83.514 443.272,83.175 442.804,82.619 C442.402,82.142 441.751,82.193 441.751,82.193 L433.84,82.195 C433.84,82.195 433.314,82.195 432.919,82.619 C432.459,83.113 432.512,83.589 432.512,83.589 C432.512,83.589 432.57,93.384 432.503,96.648 C432.417,100.784 432.016,117.24 428.741,121.452 C425.411,125.733 414.736,121.464 410.82,119.698 C391.457,109.817 378.159,89.689 378.159,66.501 C378.159,33.584 404.938,6.804 437.854,6.804 C470.771,6.804 497.55,33.584 497.55,66.501 C497.55,89.71 484.227,109.854 464.836,119.725 M437.854,0.351 C401.38,0.351 371.706,30.026 371.706,66.501 C371.706,102.975 401.38,132.65 437.854,132.65 C474.329,132.65 504.003,102.975 504.003,66.501 C504.003,30.026 474.329,0.351 437.854,0.351" id="Fill-9" sketch:type="MSShapeGroup"></path>
            <path d="M483.061,79.075 L475.154,79.075 C474.402,79.075 473.787,78.459 473.787,77.707 L473.787,69.8 C473.787,69.048 474.402,68.432 475.154,68.432 L483.061,68.432 C483.814,68.432 484.429,69.048 484.429,69.8 L484.429,77.707 C484.429,78.459 483.814,79.075 483.061,79.075" id="Fill-10" sketch:type="MSShapeGroup"></path>
            <path d="M469.293,51.538 L461.386,51.538 C460.634,51.538 460.019,50.923 460.019,50.17 L460.019,42.263 C460.019,41.511 460.634,40.896 461.386,40.896 L469.293,40.896 C470.045,40.896 470.661,41.511 470.661,42.263 L470.661,50.17 C470.661,50.923 470.045,51.538 469.293,51.538" id="Fill-11" sketch:type="MSShapeGroup"></path>
            <path d="M469.293,79.075 L461.386,79.075 C460.634,79.075 460.019,78.459 460.019,77.707 L460.019,69.8 C460.019,69.048 460.634,68.432 461.386,68.432 L469.293,68.432 C470.045,68.432 470.661,69.048 470.661,69.8 L470.661,77.707 C470.661,78.459 470.045,79.075 469.293,79.075" id="Fill-12" sketch:type="MSShapeGroup"></path>
            <path d="M455.525,37.77 L447.618,37.77 C446.866,37.77 446.25,37.154 446.25,36.402 L446.25,28.495 C446.25,27.743 446.866,27.127 447.618,27.127 L455.525,27.127 C456.277,27.127 456.893,27.743 456.893,28.495 L456.893,36.402 C456.893,37.154 456.277,37.77 455.525,37.77" id="Fill-13" sketch:type="MSShapeGroup"></path>
            <path d="M455.525,51.538 L447.618,51.538 C446.866,51.538 446.25,50.923 446.25,50.17 L446.25,42.263 C446.25,41.511 446.866,40.896 447.618,40.896 L455.525,40.896 C456.277,40.896 456.893,41.511 456.893,42.263 L456.893,50.17 C456.893,50.923 456.277,51.538 455.525,51.538" id="Fill-14" sketch:type="MSShapeGroup"></path>
            <path d="M455.525,65.306 L447.618,65.306 C446.866,65.306 446.25,64.691 446.25,63.939 L446.25,56.032 C446.25,55.279 446.866,54.664 447.618,54.664 L455.525,54.664 C456.277,54.664 456.893,55.279 456.893,56.032 L456.893,63.939 C456.893,64.691 456.277,65.306 455.525,65.306" id="Fill-15" sketch:type="MSShapeGroup"></path>
            <path d="M455.525,79.075 L447.618,79.075 C446.866,79.075 446.25,78.459 446.25,77.707 L446.25,69.8 C446.25,69.048 446.866,68.432 447.618,68.432 L455.525,68.432 C456.277,68.432 456.893,69.048 456.893,69.8 L456.893,77.707 C456.893,78.459 456.277,79.075 455.525,79.075" id="Fill-16" sketch:type="MSShapeGroup"></path>
            <path d="M441.757,37.77 L433.85,37.77 C433.098,37.77 432.482,37.154 432.482,36.402 L432.482,28.495 C432.482,27.743 433.098,27.127 433.85,27.127 L441.757,27.127 C442.509,27.127 443.124,27.743 443.124,28.495 L443.124,36.402 C443.124,37.154 442.509,37.77 441.757,37.77" id="Fill-17" sketch:type="MSShapeGroup"></path>
            <path d="M441.757,65.306 L433.85,65.306 C433.098,65.306 432.482,64.691 432.482,63.939 L432.482,56.032 C432.482,55.279 433.098,54.664 433.85,54.664 L441.757,54.664 C442.509,54.664 443.124,55.279 443.124,56.032 L443.124,63.939 C443.124,64.691 442.509,65.306 441.757,65.306" id="Fill-18" sketch:type="MSShapeGroup"></path>
            <path d="M427.989,37.77 L420.082,37.77 C419.329,37.77 418.714,37.154 418.714,36.402 L418.714,28.495 C418.714,27.743 419.329,27.127 420.082,27.127 L427.989,27.127 C428.741,27.127 429.356,27.743 429.356,28.495 L429.356,36.402 C429.356,37.154 428.741,37.77 427.989,37.77" id="Fill-19" sketch:type="MSShapeGroup"></path>
            <path d="M427.989,51.538 L420.082,51.538 C419.329,51.538 418.714,50.923 418.714,50.17 L418.714,42.263 C418.714,41.511 419.329,40.896 420.082,40.896 L427.989,40.896 C428.741,40.896 429.356,41.511 429.356,42.263 L429.356,50.17 C429.356,50.923 428.741,51.538 427.989,51.538" id="Fill-20" sketch:type="MSShapeGroup"></path>
            <path d="M427.989,65.306 L420.082,65.306 C419.329,65.306 418.714,64.691 418.714,63.939 L418.714,56.032 C418.714,55.279 419.329,54.664 420.082,54.664 L427.989,54.664 C428.741,54.664 429.356,55.279 429.356,56.032 L429.356,63.939 C429.356,64.691 428.741,65.306 427.989,65.306" id="Fill-21" sketch:type="MSShapeGroup"></path>
            <path d="M427.989,79.075 L420.082,79.075 C419.329,79.075 418.714,78.459 418.714,77.707 L418.714,69.8 C418.714,69.048 419.329,68.432 420.082,68.432 L427.989,68.432 C428.741,68.432 429.356,69.048 429.356,69.8 L429.356,77.707 C429.356,78.459 428.741,79.075 427.989,79.075" id="Fill-22" sketch:type="MSShapeGroup"></path>
            <path d="M414.22,51.538 L406.313,51.538 C405.561,51.538 404.946,50.923 404.946,50.17 L404.946,42.263 C404.946,41.511 405.561,40.896 406.313,40.896 L414.22,40.896 C414.973,40.896 415.588,41.511 415.588,42.263 L415.588,50.17 C415.588,50.923 414.973,51.538 414.22,51.538" id="Fill-23" sketch:type="MSShapeGroup"></path>
            <path d="M414.22,65.306 L406.313,65.306 C405.561,65.306 404.946,64.691 404.946,63.939 L404.946,56.032 C404.946,55.279 405.561,54.664 406.313,54.664 L414.22,54.664 C414.973,54.664 415.588,55.279 415.588,56.032 L415.588,63.939 C415.588,64.691 414.973,65.306 414.22,65.306" id="Fill-24" sketch:type="MSShapeGroup"></path>
            <path d="M414.22,79.075 L406.313,79.075 C405.561,79.075 404.946,78.459 404.946,77.707 L404.946,69.8 C404.946,69.048 405.561,68.432 406.313,68.432 L414.22,68.432 C414.973,68.432 415.588,69.048 415.588,69.8 L415.588,77.707 C415.588,78.459 414.973,79.075 414.22,79.075" id="Fill-25" sketch:type="MSShapeGroup"></path>
            <path d="M469.293,92.843 L461.386,92.843 C460.634,92.843 460.019,92.228 460.019,91.476 L460.019,83.568 C460.019,82.816 460.634,82.201 461.386,82.201 L469.293,82.201 C470.045,82.201 470.661,82.816 470.661,83.568 L470.661,91.476 C470.661,92.228 470.045,92.843 469.293,92.843" id="Fill-26" sketch:type="MSShapeGroup"></path>
            <path d="M427.989,92.843 L420.082,92.843 C419.329,92.843 418.714,92.228 418.714,91.476 L418.714,83.568 C418.714,82.816 419.329,82.201 420.082,82.201 L427.989,82.201 C428.741,82.201 429.356,82.816 429.356,83.568 L429.356,91.476 C429.356,92.228 428.741,92.843 427.989,92.843" id="Fill-27" sketch:type="MSShapeGroup"></path>
            <path d="M441.757,51.538 L433.85,51.538 C433.098,51.538 432.482,50.923 432.482,50.17 L432.482,42.263 C432.482,41.511 433.098,40.896 433.85,40.896 L441.757,40.896 C442.509,40.896 443.124,41.511 443.124,42.263 L443.124,50.17 C443.124,50.923 442.509,51.538 441.757,51.538" id="Fill-28" sketch:type="MSShapeGroup"></path>
            <path d="M441.809,79.075 L433.903,79.075 C433.15,79.075 432.535,78.459 432.535,77.707 L432.535,69.8 C432.535,69.048 433.15,68.432 433.903,68.432 L441.809,68.432 C442.562,68.432 443.177,69.048 443.177,69.8 L443.177,77.707 C443.177,78.459 442.562,79.075 441.809,79.075" id="Fill-29" sketch:type="MSShapeGroup"></path>
            <path d="M469.293,65.306 L461.386,65.306 C460.634,65.306 460.019,64.691 460.019,63.939 L460.019,56.032 C460.019,55.279 460.634,54.664 461.386,54.664 L469.293,54.664 C470.045,54.664 470.661,55.279 470.661,56.032 L470.661,63.939 C470.661,64.691 470.045,65.306 469.293,65.306" id="Fill-30" sketch:type="MSShapeGroup"></path>
            <path d="M400.452,79.075 L392.545,79.075 C391.793,79.075 391.178,78.459 391.178,77.707 L391.178,69.8 C391.178,69.048 391.793,68.432 392.545,68.432 L400.452,68.432 C401.204,68.432 401.82,69.048 401.82,69.8 L401.82,77.707 C401.82,78.459 401.204,79.075 400.452,79.075" id="Fill-31" sketch:type="MSShapeGroup"></path>
            <path d="M414.22,92.843 L406.313,92.843 C405.561,92.843 404.946,92.228 404.946,91.476 L404.946,83.568 C404.946,82.816 405.561,82.201 406.313,82.201 L414.22,82.201 C414.973,82.201 415.588,82.816 415.588,83.568 L415.588,91.476 C415.588,92.228 414.973,92.843 414.22,92.843" id="Fill-32" sketch:type="MSShapeGroup"></path>
            <path d="M483.061,64.306 L475.154,64.306 C474.402,64.306 473.787,63.691 473.787,62.939 L473.787,55.032 C473.787,54.279 474.402,53.664 475.154,53.664 L483.061,53.664 C483.814,53.664 484.429,54.279 484.429,55.032 L484.429,62.939 C484.429,63.691 483.814,64.306 483.061,64.306" id="Fill-33" sketch:type="MSShapeGroup"></path>
        </g>
    </g>
</svg>